<?xml version="1.0" encoding="UTF-8" standalone="no"?>
<!-- Created with Inkscape (http://www.inkscape.org/) -->

<svg
   xmlns:dc="http://purl.org/dc/elements/1.1/"
   xmlns:cc="http://creativecommons.org/ns#"
   xmlns:rdf="http://www.w3.org/1999/02/22-rdf-syntax-ns#"
   xmlns:svg="http://www.w3.org/2000/svg"
   xmlns="http://www.w3.org/2000/svg"
   xmlns:sodipodi="http://sodipodi.sourceforge.net/DTD/sodipodi-0.dtd"
   xmlns:inkscape="http://www.inkscape.org/namespaces/inkscape"
   id="svg2985"
   version="1.1"
   inkscape:version="0.48.2 r9819"
   width="302"
   height="287.32422"
   xml:space="preserve"
   sodipodi:docname="Kongsberg_Concept_Ad_420x297.pdf"><metadata
     id="metadata2991"><rdf:RDF><cc:Work
         rdf:about=""><dc:format>image/svg+xml</dc:format><dc:type
           rdf:resource="http://purl.org/dc/dcmitype/StillImage" /><dc:title></dc:title></cc:Work></rdf:RDF></metadata><defs
     id="defs2989" /><sodipodi:namedview
     pagecolor="#ffffff"
     bordercolor="#666666"
     borderopacity="1"
     objecttolerance="10"
     gridtolerance="10"
     guidetolerance="10"
     inkscape:pageopacity="0"
     inkscape:pageshadow="2"
     inkscape:window-width="1366"
     inkscape:window-height="706"
     id="namedview2987"
     showgrid="false"
     fit-margin-left="1"
     fit-margin-right="1"
     fit-margin-bottom="1"
     fit-margin-top="0"
     inkscape:zoom="1.8056453"
     inkscape:cx="151"
     inkscape:cy="144.16211"
     inkscape:window-x="-8"
     inkscape:window-y="-8"
     inkscape:window-maximized="1"
     inkscape:current-layer="g2993" /><g
     id="g2993"
     inkscape:groupmode="layer"
     inkscape:label="Kongsberg_Concept_Ad_420x297"
     transform="matrix(1.25,0,0,-1.25,-1089.406,942.86772)"><path
       inkscape:connector-curvature="0"
       d="m 1053.3548,582.58019 -120.20003,0 0,171.71399 120.20003,0 0,-171.71399 z"
       style="fill:#ee293d;fill-opacity:1;fill-rule:nonzero;stroke:none"
       id="path3123" /><path
       id="path3135"
       style="fill:#fcd213;fill-opacity:1;fill-rule:nonzero;stroke:none"
       d="m 992.52917,702.46047 c -7.71189,0 -15.13442,-1.27326 -22.05536,-3.62687 l -8.34612,14.3507 c -0.0434,0.12298 -0.11328,0.27732 -0.0361,0.40754 0.0892,0.1471 0.0844,0.20739 0.55464,0.20739 0.47023,0.002 3.42912,-0.13022 3.62203,-0.14711 0.26768,-0.0313 0.47748,-0.14468 0.50641,-0.55705 0.0313,-0.41959 0.10368,-2.59475 0.10368,-2.75873 -0.012,-0.42682 0.56188,-0.68244 0.78132,-0.0602 0.26044,0.7331 0.71862,1.89784 0.79097,2.12211 0.16398,0.50641 0.4606,0.36413 1.06346,0.01 l 2.23302,-1.23951 c 0.12782,-0.07 0.17846,-0.17121 0.07,-0.67762 -0.10128,-0.51846 -0.42682,-2.34878 -0.48952,-2.58993 -0.07,-0.24596 -0.0965,-0.40029 -0.59805,-0.2966 -0.504,0.0989 -1.99188,0.45093 -2.15103,0.45093 -0.1664,-0.01 -0.53536,-0.0193 -0.45336,-0.4847 0.57151,-1.2612 1.92435,-2.21615 3.20244,-2.59234 2.15586,-0.64627 4.38888,0.10848 5.75378,1.87372 0.72344,1.02971 1.07069,2.24268 1.02487,3.55452 -0.0169,0.21944 -0.0506,0.46541 -0.26767,0.58598 -0.0941,0.0337 -0.21703,0.0602 -0.29903,-0.0337 -0.32555,-0.36412 -0.47747,-0.83437 -0.84401,-1.18645 -0.46783,-0.43647 -1.16715,-0.5691 -1.79173,-0.41235 -1.1768,0.41959 -1.5771,1.67598 -1.58916,2.85518 0.0361,0.67763 0.27732,1.31184 0.86572,1.72421 0.48229,0.36895 1.29255,0.40754 1.81343,0.10128 0.45818,-0.18809 0.79579,-0.65833 1.31667,-0.66557 0.19291,-0.005 0.42683,0.2942 0.18085,0.59563 -0.39307,0.49195 -1.84718,1.80621 -1.9967,3.65339 -0.12298,1.66151 0.47989,3.12046 1.38901,3.92106 0.0772,0.0772 0.17845,0.15193 0.40996,0.0748 1.40347,-0.47506 2.67914,-2.12693 2.91547,-3.75226 0.23392,-1.63016 -0.43889,-3.13732 -0.53776,-3.37124 -0.0941,-0.23633 0.0217,-0.54258 0.23151,-0.59081 0.19773,-0.0193 0.34242,0.0989 0.46299,0.25803 0.43648,0.60286 0.89949,1.45653 1.72421,1.52163 0.7765,0.10128 1.43483,-0.26767 1.87854,-0.90188 0.50159,-0.8175 0.76926,-2.03047 0.33279,-2.97817 -0.26768,-0.63664 -0.9236,-1.03936 -1.58434,-1.05382 -0.75962,-0.0844 -1.26844,0.45335 -1.83996,0.82714 -0.11088,0.0748 -0.25561,0.0386 -0.34726,-0.0313 -0.23872,-0.24356 -0.0602,-0.61011 0.0265,-0.86572 0.7355,-1.84237 2.59475,-3.32543 4.61556,-3.36883 2.32226,-0.14469 4.4757,1.14303 5.48129,3.22656 0.26526,0.61733 0.51606,1.26602 0.47747,2.00393 0,0.1158 -0.0941,0.23874 -0.21221,0.29661 -0.46782,0.0868 -0.77408,-0.34484 -1.13097,-0.5667 l -1.45895,-1.09481 c -0.0748,-0.0386 -0.19533,-0.0602 -0.28938,-0.0217 -0.70656,0.80303 -1.3456,1.68322 -1.97017,2.53929 -0.0602,0.0989 -0.0868,0.24356 -0.0193,0.34484 0.55464,0.86813 1.17921,1.69045 1.80379,2.52481 0.0868,0.12299 0.20738,0.23392 0.36171,0.16881 0.87296,-0.55945 1.67116,-1.26844 2.57064,-1.73626 0.12298,-0.0578 0.67521,0.0772 0.41477,0.58116 -0.26043,0.50641 -1.18403,1.82308 -1.35283,2.12934 -0.17604,0.30625 -0.39066,0.51605 -0.0796,0.73549 0.31108,0.21222 2.57304,1.78209 2.6478,1.84479 0.053,0.0361 0.15433,0.0554 0.23633,0 0.07,-0.0578 2.33431,-1.63257 2.64539,-1.84479 0.30625,-0.21944 0.0965,-0.42924 -0.0748,-0.73549 -0.17122,-0.30626 -1.09481,-1.62293 -1.35525,-2.12934 -0.26767,-0.504 0.29179,-0.63903 0.41236,-0.58116 0.89948,0.46782 1.70251,1.17681 2.56581,1.73626 0.15192,0.0652 0.27974,-0.0458 0.36896,-0.16881 0.62457,-0.83436 1.24674,-1.65668 1.80138,-2.52481 0.0652,-0.10128 0.0458,-0.24596 -0.0169,-0.34484 -0.62458,-0.85607 -1.26362,-1.73626 -1.975,-2.53929 -0.0917,-0.0386 -0.20981,-0.0169 -0.29179,0.0217 l -1.4493,1.09481 c -0.35931,0.22186 -0.67039,0.65351 -1.1358,0.5667 -0.1158,-0.0578 -0.2098,-0.18086 -0.2098,-0.29661 -0.041,-0.73791 0.2098,-1.3866 0.47506,-2.00393 1.00076,-2.08353 3.15903,-3.37125 5.4837,-3.22656 2.01115,0.0434 3.88245,1.52646 4.61555,3.36883 0.087,0.25561 0.2604,0.62216 0.024,0.86572 -0.096,0.07 -0.2339,0.10608 -0.3496,0.0313 -0.5643,-0.37379 -1.0756,-0.91155 -1.8328,-0.82714 -0.6679,0.0145 -1.3287,0.41718 -1.5939,1.05382 -0.4341,0.9477 -0.164,2.16067 0.34,2.97817 0.4364,0.63421 1.0924,1.00317 1.8785,0.90188 0.8199,-0.0652 1.2926,-0.91877 1.717,-1.52163 0.1278,-0.15916 0.2652,-0.27732 0.4702,-0.25803 0.2098,0.0482 0.3256,0.35448 0.2291,0.59081 -0.1013,0.23392 -0.7741,1.74108 -0.5353,3.37124 0.2387,1.62533 1.5023,3.2772 2.9154,3.75226 0.2243,0.0772 0.3232,0.002 0.4076,-0.0748 0.9043,-0.8006 1.5096,-2.25955 1.3818,-3.92106 -0.1375,-1.84718 -1.5892,-3.16144 -1.9919,-3.65339 -0.2388,-0.30143 -0.012,-0.60045 0.1832,-0.59563 0.5209,0.007 0.8537,0.47748 1.3119,0.66557 0.5233,0.30626 1.336,0.26767 1.8134,-0.10128 0.5932,-0.41237 0.8344,-1.04658 0.8657,-1.72421 -0.01,-1.1792 -0.4123,-2.43559 -1.5891,-2.85518 -0.6174,-0.15675 -1.3239,-0.0241 -1.7893,0.41235 -0.369,0.35208 -0.5233,0.82233 -0.8465,1.18645 -0.082,0.0941 -0.1953,0.0676 -0.2966,0.0337 -0.2146,-0.12057 -0.2459,-0.36654 -0.2725,-0.58598 -0.041,-1.31184 0.3015,-2.52481 1.0273,-3.55452 1.3697,-1.7652 3.6003,-2.51999 5.761,-1.87372 1.2805,0.37619 2.6213,1.33114 3.2025,2.59234 0.082,0.46542 -0.2918,0.47507 -0.4558,0.4847 -0.1567,0 -1.6543,-0.35206 -2.1486,-0.45093 -0.504,-0.10368 -0.5305,0.0506 -0.5981,0.2966 -0.067,0.24115 -0.3882,2.07147 -0.4967,2.58993 -0.1085,0.50641 -0.058,0.60769 0.077,0.67762 l 2.233,1.23951 c 0.5981,0.35448 0.8971,0.49676 1.0563,-0.01 0.077,-0.22427 0.5281,-1.38901 0.7958,-2.12211 0.2218,-0.62215 0.7885,-0.36654 0.7861,0.0602 0,0.16398 0.06,2.33914 0.094,2.75873 0.036,0.41237 0.2411,0.52571 0.5136,0.55705 0.1929,0.0169 3.1446,0.14951 3.6148,0.14711 0.4823,0 0.4727,-0.0602 0.5523,-0.20739 0.077,-0.13022 0.017,-0.28456 -0.036,-0.40754 l -8.3388,-14.3507 c -6.9234,2.35361 -14.3387,3.62687 -22.06264,3.62687"
       inkscape:connector-curvature="0" /><path
       id="path3139"
       style="fill:#fcd213;fill-opacity:1;fill-rule:nonzero;stroke:none"
       d="m 992.52917,729.12802 c 2.10281,0 3.80049,-1.70251 3.80049,-3.8005 0,-2.09074 -1.69768,-3.79083 -3.80049,-3.79083 -2.09075,0 -3.79083,1.70009 -3.79083,3.79083 0,2.09799 1.70008,3.8005 3.79083,3.8005"
       inkscape:connector-curvature="0" /><path
       id="path3143"
       style="fill:#fcd213;fill-opacity:1;fill-rule:nonzero;stroke:none"
       d="m 962.96471,722.88953 c 1.68081,0 3.03846,-1.36008 3.03846,-3.03846 0,-1.67598 -1.35765,-3.03605 -3.03846,-3.03605 -1.67597,0 -3.03605,1.36007 -3.03605,3.03605 0,1.67838 1.36008,3.03846 3.03605,3.03846"
       inkscape:connector-curvature="0" /><path
       id="path3147"
       style="fill:#fcd213;fill-opacity:1;fill-rule:nonzero;stroke:none"
       d="m 966.59856,730.61156 c 1.6784,0 3.04088,-1.35766 3.04088,-3.03846 0,-1.67598 -1.36248,-3.03364 -3.04088,-3.03364 -1.67355,0 -3.03604,1.35766 -3.03604,3.03364 0,1.6808 1.36249,3.03846 3.03604,3.03846"
       inkscape:connector-curvature="0" /><path
       id="path3151"
       style="fill:#fcd213;fill-opacity:1;fill-rule:nonzero;stroke:none"
       d="m 975.23189,733.18774 c 1.68081,0 3.04087,-1.36008 3.04087,-3.04087 0,-1.67357 -1.36006,-3.03364 -3.04087,-3.03364 -1.67355,0 -3.03363,1.36007 -3.03363,3.03364 0,1.68079 1.36008,3.04087 3.03363,3.04087"
       inkscape:connector-curvature="0" /><path
       id="path3155"
       style="fill:#fcd213;fill-opacity:1;fill-rule:nonzero;stroke:none"
       d="m 983.71209,729.40341 c 1.6808,0 3.04087,-1.36248 3.04087,-3.04087 0,-1.67357 -1.36007,-3.03605 -3.04087,-3.03605 -1.67356,0 -3.03605,1.36248 -3.03605,3.03605 0,1.67839 1.36249,3.04087 3.03605,3.04087"
       inkscape:connector-curvature="0" /><path
       id="path3159"
       style="fill:#fcd213;fill-opacity:1;fill-rule:nonzero;stroke:none"
       d="m 1022.6396,722.88953 c -1.6832,0 -3.0433,-1.36008 -3.0433,-3.03846 0,-1.67598 1.3601,-3.03605 3.0433,-3.03605 1.6736,0 3.0337,1.36007 3.0337,3.03605 0,1.67838 -1.3601,3.03846 -3.0337,3.03846"
       inkscape:connector-curvature="0" /><path
       id="path3163"
       style="fill:#fcd213;fill-opacity:1;fill-rule:nonzero;stroke:none"
       d="m 1019.0031,730.61156 c -1.6784,0 -3.0385,-1.35766 -3.0385,-3.03846 0,-1.67598 1.3601,-3.03364 3.0385,-3.03364 1.6735,0 3.036,1.35766 3.036,3.03364 0,1.6808 -1.3625,3.03846 -3.036,3.03846"
       inkscape:connector-curvature="0" /><path
       id="path3167"
       style="fill:#fcd213;fill-opacity:1;fill-rule:nonzero;stroke:none"
       d="m 1010.37,733.18774 c -1.6784,0 -3.0385,-1.36008 -3.0385,-3.04087 0,-1.67357 1.3601,-3.03364 3.0385,-3.03364 1.676,0 3.036,1.36007 3.036,3.03364 0,1.68079 -1.36,3.04087 -3.036,3.04087"
       inkscape:connector-curvature="0" /><path
       id="path3171"
       style="fill:#fcd213;fill-opacity:1;fill-rule:nonzero;stroke:none"
       d="m 1001.8924,729.40341 c -1.6832,0 -3.04324,-1.36248 -3.04324,-3.04087 0,-1.67357 1.36004,-3.03605 3.04324,-3.03605 1.6712,0 3.0337,1.36248 3.0337,3.03605 0,1.67839 -1.3625,3.04087 -3.0337,3.04087"
       inkscape:connector-curvature="0" /><path
       id="path3175"
       style="fill:#fcd213;fill-opacity:1;fill-rule:nonzero;stroke:none"
       d="m 994.6626,740.20586 -0.96699,-3.59793 0,-0.0241 c 1.00557,0.2508 2.00151,0.60047 3.01193,0.88501 l 0,-4.24902 c -1.01042,0.2918 -2.00636,0.63664 -3.01193,0.89225 l 0,-0.0193 0.99353,-3.72332 c -0.65834,0.28697 -1.3866,0.43647 -2.16069,0.43647 -0.76202,0 -1.4927,-0.1495 -2.15586,-0.43647 l 0.99112,3.72332 0,0.0193 c -0.99594,-0.25561 -1.98706,-0.60045 -2.99988,-0.89225 l 0,4.24902 c 1.01282,-0.28454 2.00394,-0.63421 2.99988,-0.88501 l 0,0.0241 -0.95977,3.59793 4.25866,0 z"
       inkscape:connector-curvature="0" /><path
       id="path3179"
       style="fill:#fcd213;fill-opacity:1;fill-rule:nonzero;stroke:none"
       d="m 956.04594,679.0214 c -0.6535,-2.19927 -0.39788,-4.84224 1.0707,-6.63639 1.28291,-1.55058 3.29166,-2.26437 5.34866,-1.77726 1.35284,0.40996 2.52722,1.52889 2.78043,2.80456 0.21945,1.22262 -0.20979,2.397 -1.25155,3.14697 -0.93325,0.70174 -2.45971,0.78132 -3.53764,0.29661 -0.65834,-0.32555 -1.14546,-0.98147 -1.51923,-1.48547 -1.52646,0.76444 -2.479,2.17033 -2.89137,3.65098 m 12.43358,9.94734 c 3.50146,-1.28774 6.23848,-4.68068 7.13797,-7.83248 l 7.69502,4.0344 c -3.68714,3.83907 -9.50121,5.0207 -14.83299,3.79808 m 18.72511,-1.75073 c 1.45653,0.69932 2.86965,1.56986 4.32619,2.27402 l 2.12934,-3.32301 -0.18328,-0.0917 -21.19446,-11.12655 c -0.1254,3.58828 -0.93084,7.07527 -3.76914,9.61697 -1.79655,1.43242 -4.33825,2.30296 -6.76178,1.49994 -1.38419,-0.50882 -2.86724,-1.71215 -3.01675,-3.13252 -0.15916,-1.05862 0.27249,-1.97017 0.82713,-2.76837 1.29496,0.53535 2.90342,0.91395 4.4323,0.60047 2.14862,-0.39066 4.29242,-2.0353 5.07374,-3.94518 1.15028,-2.62851 0.28937,-5.66456 -1.64463,-7.69985 -2.31743,-2.29813 -5.88882,-3.01917 -9.15155,-2.08834 -3.85836,1.12858 -6.39282,4.82537 -6.55198,8.39676 -0.48471,6.74008 4.39612,12.8604 10.94087,15.59743 5.15573,2.28126 12.71089,3.04811 18.04025,0.61252 2.39942,-0.94048 4.6204,-2.54652 6.50375,-4.42265"
       inkscape:connector-curvature="0" /><path
       id="path3183"
       style="fill:#fcd213;fill-opacity:1;fill-rule:nonzero;stroke:none"
       d="m 995.9865,617.61629 c -1.6205,0.19051 -3.12526,-0.32796 -4.08021,-1.53369 -0.73068,-0.97184 -0.92601,-2.53446 -0.22668,-3.57623 0.59563,-1.16956 1.93883,-1.74591 3.25067,-1.87372 -0.45095,-2.20409 -2.00152,-4.06333 -3.64374,-5.72725 2.27402,0.96218 4.62762,2.04252 6.29395,4.10916 1.58435,1.86166 2.67671,4.64692 1.27567,6.85342 -0.71862,0.92841 -1.72662,1.57951 -2.86966,1.74831 m -9.65796,8.77054 c -7.59133,1.48305 -16.39803,1.30703 -22.9452,-2.10281 -4.31895,-2.15104 -7.87587,-6.16614 -7.64196,-10.81306 0,-3.68955 3.17591,-6.85582 6.6412,-8.49562 -0.93806,1.26843 -1.29496,2.7539 -1.29496,4.372 -0.0386,1.92195 0.67763,3.45323 1.76038,5.00381 3.46046,4.14051 9.13468,5.49817 14.67383,4.32378 2.41872,3.29407 6.18785,6.15649 10.11855,7.42252 l -1.31184,0.28938 z m 20.38176,17.02743 -0.046,-0.0796 c 3.4002,-1.4517 4.4805,-4.77954 4.6397,-7.94098 l 0,-12.91828 0.07,-4.3069 c 0.089,-4.14532 1.6953,-7.81801 4.4034,-10.95292 l 9.7399,5.11957 c -2.4235,3.29648 -3.9355,6.94263 -4.0585,11.10485 l -0.012,7.23684 c -0.092,1.87371 -0.1664,3.75466 -1.049,5.32212 -2.9154,4.72408 -8.6813,5.94912 -13.6875,7.41529 m -10.10167,13.17871 -5.9877,-3.12768 0,-18.38268 0,-0.13022 -8.09532,-4.19356 c 4.90494,-0.40996 9.65072,-1.64462 14.08302,-2.99988 l 0,28.83402 z m 4.40337,2.22338 0,-14.04444 6.0841,3.24586 0.051,6.16614 c -0.092,1.57711 0.2098,3.32543 -0.8489,4.55046 -1.2901,1.48306 -3.8728,0.93083 -5.2859,0.082 m 15.8048,7.36948 c -3.3761,-0.41961 -6.0504,-2.43318 -8.9345,-3.83667 2.2041,-0.78373 3.581,-2.88413 3.581,-5.00381 l 0.017,-7.02945 0.034,0.0241 10.0221,5.24978 0.082,3.5521 c -0.067,1.83996 0.2412,3.82701 -0.7499,5.34625 -0.9309,1.2419 -2.4212,1.84236 -4.0513,1.69768 m -30.52449,-28.92808 0,37.0644 -9.6869,-5.14368 -0.19293,-0.0652 0,-14.45921 c -2.39941,-0.0652 -4.80847,0.19774 -6.90886,-0.48713 -1.93883,-0.62215 -3.62687,-2.46452 -3.82461,-4.2876 l 10.73347,0 0,-17.74605 0,-0.0145 9.87983,5.13885 z m 10.31629,23.83745 0,18.65276 -5.9877,-3.12527 0,-18.65758 5.9877,3.13009 z m 19.6656,27.93936 c -3.1542,-0.32314 -5.6766,-2.06904 -8.3317,-3.40741 3.6438,-1.28774 3.7885,-4.99418 3.6848,-8.14598 l 9.3444,4.90978 c -0.046,1.70974 0.2557,3.58104 -0.733,4.98451 -0.8923,1.22021 -2.3536,1.74351 -3.9645,1.6591 m 8.1652,-0.35207 c 1.2733,-2.46454 0.7283,-5.64044 0.8224,-8.48117 l -1.2853,-0.67521 -16.7019,-8.75607 0,-0.002 0,8.5945 c -0.092,1.10928 -0.2557,2.23544 -1.3167,2.98782 -1.3673,1.01041 -3.622,0.39066 -4.9459,-0.27732 l 0,-8.58003 0,-0.0313 0,-10.1499 0,0.0506 10.3621,5.2715 c 3.0891,1.53369 7.3453,2.23302 10.5164,0.39064 3.1615,-1.6639 4.1236,-4.77712 4.02,-7.99162 l -0.1056,-7.67091 -13.9601,-7.32847 -0.07,-0.0241 c 4.7892,-1.56505 10.1379,-3.73537 12.6096,-8.38229 2.4236,-4.69514 0.8055,-11.02527 1.6664,-16.181 0.4002,-2.60681 1.6132,-4.97005 3.3471,-7.07286 l 0.1399,0.0724 4.2056,2.21132 2.1173,-3.36642 -14.8017,-7.77218 -6.6195,-3.47494 c -3.9114,4.52152 -7.2248,9.33965 -7.3695,15.31047 l -0.1036,4.90976 0.067,11.80658 c -0.1422,2.33432 -0.217,4.79884 -2.5272,6.20232 -1.0249,0.60046 -2.4573,0.60046 -3.4942,0.0941 l 0,-15.1513 c -6.9933,-0.14951 -13.69721,-1.81343 -18.41405,-6.86306 -1.31185,-1.35766 -2.38254,-2.79732 -3.3592,-4.25866 -2.95164,1.35042 -7.27783,1.63256 -10.25359,0.11328 -2.40906,-1.21298 -4.01993,-3.47735 -3.61481,-6.03593 0.38101,-2.74185 3.48941,-4.84465 6.24814,-5.40171 6.40488,-1.12616 13.72371,0 17.47597,5.29802 l 0.55464,1.00076 c -2.21856,1.56504 -3.08669,3.9934 -2.5851,6.50616 0.50641,2.72015 3.38812,5.26908 6.37111,5.73449 3.15663,0.59563 6.2602,-0.30384 8.36059,-2.56822 2.1342,-2.13899 2.5513,-5.70797 1.3673,-8.38953 -2.8214,-6.47481 -10.48268,-9.37582 -17.22516,-10.78894 -8.4884,-1.7218 -17.652,-1.16716 -25.20717,1.96776 -4.77471,2.05699 -9.06233,6.41212 -9.39029,11.2833 -0.55222,6.08657 3.33749,11.27606 8.97552,14.36275 3.53764,1.93883 7.55757,3.11322 11.75836,3.62203 l 0,2.81178 0,12.354 -11.74388,0 c -0.0362,4.6421 1.92435,9.47228 6.87511,11.54615 1.52887,0.55464 3.14456,0.89707 4.86877,0.9453 l 0,0.0482 0,12.86523 6.97158,3.56416 22.28686,11.70048 9.1106,4.77713 c 2.9613,1.51924 7.4876,2.35843 10.6201,0.56429 1.418,-0.70174 2.7684,-1.96052 3.3761,-3.29166"
       inkscape:connector-curvature="0" /><path
       id="path3187"
       style="fill:#15366f;fill-opacity:1;fill-rule:nonzero;stroke:none"
       d="m 953.63206,525.23481 c -3.34712,0.7355 -5.2112,2.60681 -6.55198,4.40817 -0.60045,0.81268 -9.33241,14.04686 -12.1876,18.37305 l 0,-16.34259 c 0,-2.36565 -0.0386,-4.04886 1.92676,-5.36071 l 0,-0.12539 -6.59538,0 0,0.12539 c 1.96294,1.31185 1.96294,2.99506 1.96294,5.36071 l 0,17.34816 c 0,2.36085 -0.49676,3.55211 -2.42353,4.82296 l 0,0.12299 6.93782,0 0,-0.041 14.26387,-21.78046 0,16.37874 c 0,2.36085 0.0362,4.04887 -1.92918,5.31972 l 0,0.12299 6.52305,0 0,-0.12299 c -1.92677,-1.27085 -1.92677,-2.95887 -1.92677,-5.31972 l 0,-23.29003"
       inkscape:connector-curvature="0" /><path
       id="path3191"
       style="fill:#15366f;fill-opacity:1;fill-rule:nonzero;stroke:none"
       d="m 902.89436,540.17511 c 0,-6.28672 3.10116,-12.00675 8.73919,-12.00675 5.18708,0 8.38711,5.41859 8.38711,12.00675 0,6.76178 -3.25308,12.19724 -8.45464,12.19724 -5.29318,0 -8.67166,-5.25943 -8.67166,-12.19724 m 22.13253,0.27973 c 0,-8.58727 -6.25055,-14.81852 -13.61279,-14.81852 -7.32364,0 -13.50184,5.98046 -13.50184,14.61355 0,7.99886 6.10585,14.69071 13.8708,14.4785 7.76737,0.0434 13.24383,-6.68702 13.24383,-14.27353"
       inkscape:connector-curvature="0" /><path
       id="path3195"
       style="fill:#15366f;fill-opacity:1;fill-rule:nonzero;stroke:none"
       d="m 979.0753,528.55059 0,6.68461 c 0,1.94365 -0.24355,3.83425 -2.1438,4.59386 l 0,0.1254 6.70391,0 0,-13.34029 c -2.10763,-0.54017 -6.30119,-1.15268 -8.19661,-1.10445 -1.18644,0.0289 -14.42304,-0.012 -14.3507,14.29764 0.0652,13.03644 10.97704,14.57978 13.47774,14.65936 2.39943,0.0724 5.84783,-0.28214 8.12427,-1.36971 l 0,-5.30525 -0.12781,0 c -1.76279,2.5851 -3.71608,4.3937 -7.65644,4.3937 -2.8166,0 -8.79465,-2.64538 -8.79465,-12.49386 0,-2.30295 0.49435,-8.6379 5.7369,-10.97221 1.00076,-0.44371 4.54322,-1.47099 7.22719,-0.1688"
       inkscape:connector-curvature="0" /><path
       id="path3199"
       style="fill:#15366f;fill-opacity:1;fill-rule:nonzero;stroke:none"
       d="m 1107.7647,528.55059 0,6.68461 c 0,1.94365 -0.2436,3.83425 -2.1438,4.59386 l 0,0.1254 6.7039,0 0,-13.34029 c -2.1077,-0.54017 -6.3012,-1.15268 -8.1966,-1.10445 -1.1912,0.0289 -14.4254,-0.012 -14.3507,14.29764 0.067,13.03644 10.9794,14.57978 13.4729,14.65936 2.4018,0.0724 5.8526,-0.28214 8.1266,-1.36971 l 0,-5.30525 -0.1254,0 c -1.7652,2.5851 -3.7136,4.3937 -7.6563,4.3937 -2.8191,0 -8.7923,-2.64538 -8.7923,-12.49386 0,-2.30295 0.492,-8.6379 5.7346,-10.97221 1.0006,-0.44371 4.5456,-1.47099 7.2271,-0.1688"
       inkscape:connector-curvature="0" /><path
       id="path3203"
       style="fill:#15366f;fill-opacity:1;fill-rule:nonzero;stroke:none"
       d="m 990.76734,533.42056 c 1.64223,-2.93958 4.60593,-5.54398 7.46835,-5.30525 2.90341,0.24357 4.83741,2.31021 4.83741,5.40172 0,6.12997 -11.90304,4.98451 -11.80417,13.53561 0.0748,6.10103 5.52952,7.7746 9.16607,7.7746 1.565,0 4.0151,-0.36173 5.5343,-0.96701 l -0.1736,-5.04239 -0.048,-0.0265 c -2.192,3.19762 -3.622,3.81978 -5.9322,3.81978 -2.09317,0 -4.23938,-1.79895 -4.23938,-4.22491 0,-6.44346 11.98748,-4.67102 11.98748,-14.31692 0,-5.32455 -4.6855,-8.35336 -9.80268,-8.35336 -0.82714,0 -4.20079,0.30625 -6.429,1.42759 l -0.61975,6.25296 0.0554,0.0241 z"
       inkscape:connector-curvature="0" /><path
       id="path3207"
       style="fill:#15366f;fill-opacity:1;fill-rule:nonzero;stroke:none"
       d="m 1019.7977,551.51146 0,-22.97654 c 3.6196,-0.68487 9.8267,-0.0989 9.7423,6.01422 -0.048,3.33747 -2.4163,5.84059 -8.158,5.85265 l 0.8199,2.07386 c 1.8351,0.43649 5.2546,1.11893 5.2546,5.24496 0,3.57864 -4.6831,4.75785 -7.6588,3.79085 m 14.6135,-17.03708 c 0,-3.2555 -1.8785,-5.62839 -4.7168,-6.98604 -2.9638,-1.44207 -6.3133,-1.31186 -9.4892,-1.31186 l -6.7377,0 0,0.13023 c 2.1173,0.80303 1.8641,3.89454 1.8641,5.83818 l 0,15.9471 c 0,1.90747 0.2966,4.99898 -1.8641,5.80442 l 0,0.12298 9.6893,0 c 5.5923,0 9.0552,-2.24508 9.0552,-6.0094 0,-2.84071 -1.8472,-4.62279 -5.8889,-6.07451 2.8311,-0.49676 8.0881,-1.77002 8.0881,-7.4611"
       inkscape:connector-curvature="0" /><path
       id="path3211"
       style="fill:#15366f;fill-opacity:1;fill-rule:nonzero;stroke:none"
       d="m 1057.1985,549.15906 -0.1176,0 c -0.9694,1.25638 -2.0667,3.50147 -10.1572,2.44766 l 0,-8.79466 7.9651,0 0,-4.21768 -0.123,0 c -0.6751,1.22504 -2.4524,1.90508 -3.7594,1.90508 l -4.0827,0 0,-11.87652 c 10.2054,-1.2178 11.7946,2.77078 12.5373,3.76671 l 0.217,0 -1.9147,-6.15408 -17.5025,0 0,0.12299 c 2.168,1.12374 2.1486,3.43634 2.1486,5.33177 l 0,16.80799 c 0,1.93642 0,4.56733 -2.1486,5.37036 l 0,0.12539 16.9383,0 0,-4.83501 z"
       inkscape:connector-curvature="0" /><path
       id="path3215"
       style="fill:#15366f;fill-opacity:1;fill-rule:nonzero;stroke:none"
       d="m 1089.017,526.23461 -3.8078,0 c -1.4204,0.0724 -3.2724,0.0193 -5.5561,2.83348 -2.2836,2.81178 -7.4707,10.41517 -7.4707,10.41517 l 1.0417,1.94124 c 2.7154,0.7138 5.1461,2.23302 5.1461,5.843 0,2.7322 -2.4042,4.37925 -5.2328,4.48294 -1.0104,0.0434 -1.6133,0.0506 -2.5828,-0.1182 l 0,-19.49196 c 0.089,-2.13658 -0.3665,-5.0207 1.7893,-5.78273 l 0,-0.12297 -8.2327,0 0,0.12297 c 2.1438,1.0273 1.7242,3.73539 1.8544,5.78273 l 0,16.10624 c -0.1302,2.10281 0.2942,4.81814 -1.8544,5.62115 l 0,0.1254 10.0414,0 c 6.1782,0 8.9055,-2.95165 8.9055,-6.78589 0,-3.71609 -2.901,-5.69591 -6.4314,-6.67496 3.2339,-4.42989 8.8767,-12.92552 12.3829,-14.23013 l 0.012,-0.0676 z"
       inkscape:connector-curvature="0" /><path
       id="path3219"
       style="fill:#15366f;fill-opacity:1;fill-rule:nonzero;stroke:none"
       d="m 897.40054,526.35374 0,-0.12782 -4.34549,0 c -2.06663,0 -3.7209,0.88019 -5.09785,2.76597 l -8.1315,12.11526 6.86788,7.39599 c 2.11245,2.26679 2.94924,4.43471 0.0193,5.38724 l 0,0.1254 8.00127,0 0,-0.0434 -10.57431,-11.54374 c 3.24343,-4.56252 9.33482,-14.4544 13.2607,-16.0749"
       inkscape:connector-curvature="0" /><path
       id="path3223"
       style="fill:#15366f;fill-opacity:1;fill-rule:nonzero;stroke:none"
       d="m 874.22746,548.10164 c 0,1.90264 0.25079,4.98692 -1.90266,5.78995 l 0,0.1254 8.30995,0 0,-0.1254 c -2.15345,-0.76444 -1.90025,-3.88731 -1.90025,-5.78995 l 0,-15.92057 c 0,-1.94124 -0.2532,-5.03034 1.90025,-5.82855 l 0,-0.1278 -8.30995,0 0,0.1278 c 2.15345,0.79821 1.90266,3.92589 1.90266,5.82855 l 0,15.92057 z"
       inkscape:connector-curvature="0" /></g></svg>